<?xml version="1.0" encoding="UTF-8" standalone="no"?>
<!-- Created with Inkscape (http://www.inkscape.org/) -->

<svg
   width="1298.45mm"
   height="271.45999mm"
   viewBox="0 0 1298.4499 271.46"
   version="1.1"
   id="svg1"
   xml:space="preserve"
   sodipodi:docname="logo-mon-light.svg"
   inkscape:version="1.4.3 (0d15f750, 2025-12-25)"
   xmlns:inkscape="http://www.inkscape.org/namespaces/inkscape"
   xmlns:sodipodi="http://sodipodi.sourceforge.net/DTD/sodipodi-0.dtd"
   xmlns="http://www.w3.org/2000/svg"
   xmlns:svg="http://www.w3.org/2000/svg"><sodipodi:namedview
     id="namedview1"
     pagecolor="#ffffff"
     bordercolor="#666666"
     borderopacity="1.0"
     inkscape:showpageshadow="2"
     inkscape:pageopacity="0.0"
     inkscape:pagecheckerboard="0"
     inkscape:deskcolor="#d1d1d1"
     inkscape:document-units="mm"
     inkscape:zoom="0.025341365"
     inkscape:cx="2466.3234"
     inkscape:cy="493.26467"
     inkscape:window-width="944"
     inkscape:window-height="646"
     inkscape:window-x="0"
     inkscape:window-y="30"
     inkscape:window-maximized="0"
     inkscape:current-layer="svg1" /><defs
     id="defs1" /><circle
     style="fill:#ffffff;fill-opacity:0.926366;stroke-width:0.278962"
     id="path2"
     cx="135.02222"
     cy="137.92912"
     r="123.76624" /><path
     style="fill:#004eb3;fill-opacity:1;stroke:none;stroke-width:2.55103"
     d="M 123.05519,272.09015 C 76.341331,268.24659 33.807374,238.68567 13.432052,195.90252 -6.7499688,153.52534 -3.5699305,104.168 21.881908,64.752046 c 2.111536,-3.27001 4.130422,-6.30733 4.486391,-6.74958 0.355999,-0.44228 2.217506,-2.77838 4.136695,-5.19134 C 46.774581,32.355642 71.829279,15.745695 97.58348,8.341598 c 28.75744,-8.267473 60.19708,-6.628384 88.01921,4.588859 34.18578,13.782924 62.16588,42.274909 75.28864,76.665949 20.49676,53.716274 4.74874,114.673934 -39.1153,151.407994 -21.50219,18.00706 -47.46269,28.6973 -75.59547,31.12937 -9.09717,0.78643 -13.12957,0.77883 -23.12537,-0.0437 z M 99.334931,197.42116 c 3.140539,-2.50576 7.437899,-5.84885 9.549669,-7.42909 4.51608,-3.37934 4.48449,-4.22057 -0.24847,-6.61897 -2.72042,-1.37855 -3.29247,-1.98713 -3.30153,-3.51223 -0.005,-1.01462 -0.0329,-7.61568 -0.0594,-14.669 l -0.0485,-12.82424 8.15899,-0.18954 8.15903,-0.18954 v 13.79901 13.799 l -3.14203,3.01105 c -1.86233,1.7847 -2.9931,3.3992 -2.77636,3.96402 0.20103,0.52407 3.36149,2.1237 7.02303,3.55464 3.66157,1.43096 8.17604,3.28494 10.03218,4.11994 12.0524,5.42186 17.38086,7.74088 17.78628,7.74088 0.25519,0 3.10141,-1.89831 6.32495,-4.2185 3.22355,-2.32015 7.83659,-5.58527 10.25121,-7.25581 2.41463,-1.67051 4.40317,-3.5402 4.41897,-4.15485 0.0179,-0.72705 -1.50432,-1.83498 -4.35848,-3.1706 l -4.38726,-2.05304 v -14.89935 -14.89935 l 4.18041,-6.90354 c 2.29926,-3.79698 5.62804,-9.18155 7.39733,-11.96578 l 3.21689,-5.06218 -7.39732,-0.19082 -7.39731,-0.19081 V 110.15085 93.289236 l 4.21851,2.10978 c 2.32019,1.16037 5.94023,3.14595 8.04457,4.41241 l 3.82602,2.302694 0.2973,40.31336 c 0.20561,27.87657 0.54199,41.22539 1.09052,43.2697 1.26544,4.71614 3.17064,8.35151 5.60628,10.6974 2.38726,2.2993 9.56115,5.58257 12.19779,5.58257 0.88646,0 4.61709,-2.25822 8.64163,-5.23093 3.895,-2.87702 9.12187,-6.7207 11.6153,-8.54156 2.49342,-1.82084 4.53348,-3.66827 4.53348,-4.10542 0,-0.43711 -1.11518,-1.52905 -2.47817,-2.42653 -3.30546,-2.17646 -4.98231,-4.58399 -5.66923,-8.13959 -0.31255,-1.61785 -0.5815,-20.11084 -0.59768,-41.09552 -0.0288,-37.337434 -5.1e-4,-38.178684 1.32055,-39.309794 0.74244,-0.63571 1.3499,-1.58854 1.3499,-2.11743 0,-0.5792 -5.70342,-3.78515 -14.34289,-8.06226 -7.88858,-3.90536 -16.07643,-8.06912 -18.19522,-9.25281 l -3.85233,-2.15208 -5.25964,3.35306 c -7.89317,5.03203 -20.37874,12.33776 -21.08532,12.33776 -0.90524,0 -19.61319,-9.72801 -24.72552,-12.8571 -2.39655,-1.46681 -4.64625,-2.66697 -4.99936,-2.66697 -0.35312,0 -2.70169,1.31906 -5.21904,2.93121 -6.12476,3.9224 -17.98804,10.56799 -18.86529,10.56799 -0.941149,0 -12.215653,-4.98591 -21.911677,-9.68996 -7.987061,-3.87496 -9.073341,-4.2469 -9.472323,-3.24329 -0.123728,0.31127 -4.629087,3.95727 -10.011878,8.10226 -5.382819,4.14499 -10.166584,7.85079 -10.630618,8.23515 -2.152834,1.78314 -1.175538,2.56611 11.811796,9.46306 l 4.218481,2.240244 v 39.63359 39.63359 l -3.881006,2.65078 c -2.244142,1.53276 -3.881031,3.15048 -3.881031,3.83562 0,0.9033 2.726534,2.27587 11.474302,5.77632 6.310885,2.52532 14.359762,5.82359 17.886425,7.32951 3.526669,1.50592 6.736348,2.75222 7.132647,2.76957 0.396306,0.0179 3.290084,-2.01865 6.430583,-4.52446 z m 1.070409,-18.56137 c -1.063599,-0.78137 -1.135459,-4.0095 -0.972699,-43.70361 l 0.175747,-42.859954 1.518662,-0.21556 1.51865,-0.21556 v 43.919324 c 0,24.15562 -0.24567,43.9193 -0.54594,43.9193 -0.30029,0 -1.06277,-0.37968 -1.6944,-0.8437 z m 57.75577,0.0204 c -1.49736,-0.72214 -1.51868,-0.91576 -1.51868,-13.79098 v -13.05858 h 1.6874 1.6874 v 13.83667 c 0,7.61017 -0.0761,13.81611 -0.16888,13.79099 -0.0928,-0.0255 -0.85212,-0.37526 -1.68738,-0.7781 z m -53.20237,-36.97445 c 0.125,-2.04173 0.26327,-13.83843 0.30709,-26.21485 l 0.0796,-22.502554 6.51499,3.48106 c 10.67616,5.704394 9.63822,3.763484 9.66286,18.069224 l 0.0204,12.31802 h -2.34163 c -2.51858,0 -2.21151,-0.36933 -9.72219,11.69346 -1.34632,2.1623 -2.96567,4.59216 -3.59861,5.39968 -1.11792,1.42628 -1.14429,1.36217 -0.92338,-2.24404 z m 51.84103,-32.2293 0.18011,-17.380234 1.51866,-0.21556 1.51864,-0.21556 v 17.595904 17.59588 h -1.69878 -1.6988 z"
     id="path1" /><text
     xml:space="preserve"
     style="font-style:normal;font-variant:normal;font-weight:normal;font-stretch:normal;font-size:128.639px;line-height:1.25;font-family:Arial;-inkscape-font-specification:Arial;stroke-width:1.50748"
     x="349.0575"
     y="95.009697"
     id="text2"
     transform="scale(1.0299196,0.97094958)"><tspan
       id="tspan2"
       style="font-style:normal;font-variant:normal;font-weight:normal;font-stretch:normal;font-size:128.639px;font-family:Arial;-inkscape-font-specification:Arial;stroke-width:1.50748"
       x="349.0575"
       y="95.009697">Monetarium</tspan><tspan
       style="font-style:normal;font-variant:normal;font-weight:bold;font-stretch:normal;font-size:128.639px;font-family:Arial;-inkscape-font-specification:'Arial Bold';stroke-width:1.50748"
       x="349.0575"
       y="255.80846"
       id="tspan3">Block Explorer</tspan></text><rect
     style="fill:#000000;fill-opacity:1;stroke-width:0.617067"
     id="rect3"
     width="2.2173381"
     height="241.21344"
     x="311.60687"
     y="17.322393" /></svg>
